<!-- Generator: Adobe Illustrator 19.1.0, SVG Export Plug-In  -->
<svg version="1.1"
	 xmlns="http://www.w3.org/2000/svg" xmlns:xlink="http://www.w3.org/1999/xlink" xmlns:a="http://ns.adobe.com/AdobeSVGViewerExtensions/3.0/"
	 x="0px" y="0px" width="176px" height="176px" viewBox="0 0 176 176" style="enable-background:new 0 0 176 176;"
	 xml:space="preserve">
<style type="text/css">
	.st0{fill:#C4D600;}
	.st1{fill:#FFFFFF;}
</style>
<defs>
</defs>
<path class="st0" d="M147.568,0H28.432C12.729,0,0,12.729,0,28.432v119.136C0,163.271,12.729,176,28.432,176h119.136
	C163.271,176,176,163.271,176,147.568V28.432C176,12.729,163.271,0,147.568,0z"/>
<g>
	<path class="st1" d="M143.338,49.546h-4.795v-8.525c0-9.249-7.498-16.745-16.745-16.745H54.202
		c-9.249,0-16.746,7.497-16.746,16.745v8.525H32.66c-1.924,0-3.486,1.562-3.486,3.486v19.316c0,1.924,1.562,3.486,3.486,3.486h4.797
		v41.631c-1.866,1.673-3.039,4.1-3.039,6.803v6.453c0,5.043,4.09,9.133,9.133,9.133h1.131v9.184c0,1.482,1.203,2.686,2.687,2.686
		h12.358c1.482,0,2.686-1.203,2.686-2.686v-9.184h51.175v9.184c0,1.482,1.203,2.686,2.688,2.686h12.357
		c1.484,0,2.687-1.203,2.687-2.686v-9.184h1.129c5.045,0,9.134-4.09,9.134-9.133v-6.453c0-2.703-1.174-5.13-3.04-6.803V75.834h4.795
		c1.926,0,3.488-1.562,3.488-3.486V53.032C146.826,51.108,145.264,49.546,143.338,49.546L143.338,49.546z M128.188,50.909v41.202
		H92.566V50.909H128.188z M70.24,33.007h35.519c2.467,0,4.466,1.999,4.466,4.465c0,2.467-1.999,4.466-4.466,4.466H70.24
		c-2.466,0-4.465-1.999-4.465-4.466C65.774,35.006,67.774,33.007,70.24,33.007L70.24,33.007z M47.811,50.909h35.622v41.202H47.811
		V50.909z M63.755,110.493c0,2.428-1.974,4.403-4.402,4.403h-7.264c-2.424,0-4.398-1.974-4.398-4.403v-4.896
		c0-2.428,1.974-4.403,4.398-4.403h7.264c2.428,0,4.402,1.974,4.402,4.403V110.493z M112.244,110.493v-4.896
		c0-2.428,1.974-4.403,4.403-4.403h7.264c2.424,0,4.396,1.974,4.396,4.403v4.896c0,2.428-1.973,4.403-4.396,4.403h-7.264
		C114.22,114.896,112.244,112.921,112.244,110.493L112.244,110.493z M112.244,110.493"/>
</g>
</svg>