<!-- Generator: Adobe Illustrator 19.1.0, SVG Export Plug-In  -->
<svg version="1.1"
	 xmlns="http://www.w3.org/2000/svg" xmlns:xlink="http://www.w3.org/1999/xlink" xmlns:a="http://ns.adobe.com/AdobeSVGViewerExtensions/3.0/"
	 x="0px" y="0px" width="201.467px" height="68.986px" viewBox="0 0 201.467 68.986"
	 style="enable-background:new 0 0 201.467 68.986;" xml:space="preserve">
<style type="text/css">
	.st0{fill:#C4D600;}
	.st1{fill:none;stroke:#000000;stroke-width:0.1185;stroke-miterlimit:10;}
	.st2{fill:#FFFFFF;}
	.st3{fill:#4C8B2B;}
	.st4{fill:#86C140;}
</style>
<defs>
</defs>
<g>
	<g>
		<g>
			<path class="st0" d="M149.408,35.909h-22.153c-3.766,0-6.818-3.053-6.818-6.818V6.818c0-3.766,3.053-6.818,6.818-6.818h22.153
				c3.766,0,6.818,3.053,6.818,6.818V29.09C156.226,32.856,153.174,35.909,149.408,35.909z"/>
			<path class="st1" d="M132.257,26.377v0.012h0.207C132.395,26.389,132.325,26.385,132.257,26.377z"/>
			<path class="st2" d="M148.134,22.774v-7.762l-1.264-8.257h-16.729l-1.264,8.257v7.775c-0.901,0.102-1.6,0.865-1.6,1.794
				c0,0.928,0.699,1.692,1.6,1.795c0.068,0.008,0.533,0.012,0.533,0.012v3.18c0,1.014,0.822,1.837,1.837,1.837h0
				c1.014,0,1.837-0.822,1.837-1.837v-3.18h11.042v3.18c0,1.014,0.822,1.837,1.837,1.837l0,0c1.014,0,1.837-0.822,1.837-1.837v-3.18
				l0.285,0c0.974,0,1.811-0.749,1.856-1.722C149.987,23.629,149.16,22.774,148.134,22.774z M131.395,8.059h14.136l0.999,11.673
				h-16.134L131.395,8.059z M132.224,23.643c-0.818,0-1.481-0.664-1.481-1.481c0-0.818,0.664-1.481,1.481-1.481
				c0.818,0,1.481,0.664,1.481,1.481C133.706,22.979,133.042,23.643,132.224,23.643z M143.058,22.161
				c0-0.818,0.662-1.481,1.481-1.481c0.818,0,1.481,0.664,1.481,1.481c0,0.818-0.664,1.481-1.481,1.481
				C143.721,23.643,143.058,22.979,143.058,22.161z"/>
		</g>

		<path class="st3" d="M62.036,35.909H39.883c-3.766,0-6.818-3.053-6.818-6.818V6.818C33.064,3.053,36.117,0,39.883,0h22.153
			c3.766,0,6.818,3.053,6.818,6.818V29.09C68.854,32.856,65.802,35.909,62.036,35.909z"/>
		<path class="st2" d="M62.129,16.851c0,3.631-2.943,6.574-6.574,6.574c-0.132,0-0.263-0.004-0.392-0.012
			c-0.658,0.609-1.442,1.083-2.309,1.381l0.771,6.789h-5.688l0.911-6.714c-0.914-0.275-1.743-0.744-2.44-1.36
			c-0.213,0.023-0.429,0.034-0.648,0.034c-3.316,0-6.005-2.688-6.005-6.004c0-2.438,1.453-4.537,3.541-5.478
			c0.676-3.446,3.713-6.045,7.356-6.045c3.103,0,5.766,1.884,6.904,4.571C60.209,11.434,62.129,13.919,62.129,16.851z"/>
		<path class="st4" d="M105.722,35.909H83.569c-3.766,0-6.818-3.053-6.818-6.818V6.818C76.75,3.053,79.803,0,83.569,0h22.153
			c3.766,0,6.818,3.053,6.818,6.818V29.09C112.54,32.856,109.488,35.909,105.722,35.909z"/>
		<g>
			<circle class="st2" cx="94.879" cy="8.533" r="3.476"/>
			<path class="st2" d="M92.746,13.59c0,0.899-0.361,1.716-0.948,2.311v-3.418h0.757C92.678,12.829,92.746,13.202,92.746,13.59z"/>
			<path class="st2" d="M97.526,12.483v3.355c-0.552-0.59-0.889-1.381-0.889-2.248c0-0.388,0.068-0.761,0.191-1.107H97.526z"/>
			<path class="st2" d="M97.53,16.333v16.296h-2.567v-9.776c0-0.164-0.133-0.297-0.297-0.297l0,0c-0.164,0-0.297,0.133-0.297,0.297
				v9.776h-2.567V16.385c0.796-0.671,1.304-1.675,1.304-2.796c0-0.385-0.06-0.757-0.172-1.107h3.523
				c-0.111,0.35-0.172,0.722-0.172,1.107C96.286,14.681,96.768,15.663,97.53,16.333z"/>
			<g>
				<path class="st2" d="M91.403,22.77c0,0.515-0.417,0.932-0.932,0.932c-0.515,0-0.932-0.417-0.932-0.932H91.403z"/>
				<path class="st2" d="M91.403,22.556h-1.865v-9.687c0-0.213,0.173-0.386,0.386-0.386h1.478V22.556z"/>
			</g>
			<g>
				<path class="st2" d="M97.888,22.77c0,0.515,0.417,0.932,0.932,0.932c0.515,0,0.932-0.417,0.932-0.932H97.888z"/>
				<path class="st2" d="M97.888,22.556h1.865v-9.687c0-0.213-0.173-0.386-0.386-0.386h-1.478V22.556z"/>
			</g>
		</g>
	</g>
</g>
</svg>