<!-- Generator: Adobe Illustrator 19.1.0, SVG Export Plug-In  -->
<svg version="1.1"
	 xmlns="http://www.w3.org/2000/svg" xmlns:xlink="http://www.w3.org/1999/xlink" xmlns:a="http://ns.adobe.com/AdobeSVGViewerExtensions/3.0/"
	 x="0px" y="0px" width="201.467px" height="68.986px" viewBox="0 0 201.467 68.986"
	 style="enable-background:new 0 0 201.467 68.986;" xml:space="preserve">
<style type="text/css">
	.st0{fill:#C4D600;}
	.st1{fill:none;stroke:#000000;stroke-width:0.1185;stroke-miterlimit:10;}
	.st2{fill:#FFFFFF;}
	.st3{fill:#4C8B2B;}
	.st4{fill:#86C140;}
</style>
<defs>
</defs>
<g>
	<g>
		<g>
			<path class="st0" d="M149.408,35.909h-22.153c-3.766,0-6.818-3.053-6.818-6.818V6.818c0-3.766,3.053-6.818,6.818-6.818h22.153
				c3.766,0,6.818,3.053,6.818,6.818V29.09C156.226,32.856,153.174,35.909,149.408,35.909z"/>
			<path class="st1" d="M132.257,26.377v0.012h0.207C132.395,26.389,132.325,26.385,132.257,26.377z"/>
			<path class="st2" d="M148.134,22.774v-7.762l-1.264-8.257h-16.729l-1.264,8.257v7.775c-0.901,0.102-1.6,0.865-1.6,1.794
				c0,0.928,0.699,1.692,1.6,1.795c0.068,0.008,0.533,0.012,0.533,0.012v3.18c0,1.014,0.822,1.837,1.837,1.837h0
				c1.014,0,1.837-0.822,1.837-1.837v-3.18h11.042v3.18c0,1.014,0.822,1.837,1.837,1.837l0,0c1.014,0,1.837-0.822,1.837-1.837v-3.18
				l0.285,0c0.974,0,1.811-0.749,1.856-1.722C149.987,23.629,149.16,22.774,148.134,22.774z M131.395,8.059h14.136l0.999,11.673
				h-16.134L131.395,8.059z M132.224,23.643c-0.818,0-1.481-0.664-1.481-1.481c0-0.818,0.664-1.481,1.481-1.481
				c0.818,0,1.481,0.664,1.481,1.481C133.706,22.979,133.042,23.643,132.224,23.643z M143.058,22.161
				c0-0.818,0.662-1.481,1.481-1.481c0.818,0,1.481,0.664,1.481,1.481c0,0.818-0.664,1.481-1.481,1.481
				C143.721,23.643,143.058,22.979,143.058,22.161z"/>
		</g>
		<g>
			<path d="M151.002,49.129c0,1.121-0.908,2.027-2.029,2.027c-0.721,0-1.357-0.376-1.715-0.947h-3.69v16.769
				c0,0.664-0.537,1.201-1.201,1.201c-0.332,0-0.633-0.135-0.849-0.35c-0.218-0.218-0.353-0.519-0.353-0.851V50.209h-4.736
				c-0.662,0-1.199-0.537-1.199-1.199v-0.003c0-0.662,0.537-1.199,1.199-1.199h11.008c0.371-0.431,0.921-0.706,1.536-0.706
				C150.093,47.102,151.002,48.011,151.002,49.129z"/>
			<path d="M156.783,66.957c0,1.121-0.908,2.029-2.027,2.029s-2.027-0.908-2.027-2.029c0-0.67,0.327-1.264,0.828-1.635V49.007
				c0-0.662,0.537-1.199,1.199-1.199c0.332,0,0.631,0.135,0.849,0.35c0.215,0.218,0.35,0.519,0.35,0.849v16.315
				C156.456,65.693,156.783,66.287,156.783,66.957z"/>
			<path d="M95.569,66.926c0,1.121-0.908,2.027-2.027,2.027c-0.677,0-1.274-0.33-1.643-0.838h-8.911
				c-0.602,0-1.087-0.485-1.087-1.087v-18.02c0-0.662,0.537-1.199,1.199-1.199h0.003c0.662,0,1.199,0.537,1.199,1.199v16.707h7.616
				c0.368-0.496,0.958-0.815,1.624-0.815C94.661,64.899,95.569,65.807,95.569,66.926z"/>
			<path d="M34.885,63.825c0,1.121-0.908,2.029-2.027,2.029c-0.034,0-0.067,0-0.099-0.003c-1.778,1.531-4.095,2.457-6.628,2.457
				c-5.712,0-10.323-4.71-10.16-10.461c0.151-5.304,4.463-9.661,9.768-9.861c2.948-0.112,5.629,1.033,7.554,2.94
				c0.485,0.48,0.496,1.261,0.013,1.744l-0.003,0.003c-0.477,0.475-1.248,0.477-1.723,0.003c-1.396-1.391-3.322-2.252-5.45-2.252
				c-4.432,0-7.993,3.737-7.702,8.234c0.244,3.797,3.309,6.898,7.103,7.183c2.019,0.153,3.887-0.47,5.338-1.601
				c-0.026-0.135-0.042-0.272-0.042-0.415c0-1.118,0.908-2.027,2.029-2.027C33.977,61.798,34.885,62.706,34.885,63.825z"/>
			<path d="M179.369,63.825c0,1.121-0.908,2.029-2.027,2.029c-0.034,0-0.067,0-0.099-0.003c-1.778,1.531-4.095,2.457-6.628,2.457
				c-5.712,0-10.323-4.71-10.16-10.461c0.151-5.304,4.463-9.661,9.768-9.861c2.948-0.112,5.629,1.033,7.554,2.94
				c0.485,0.48,0.496,1.261,0.013,1.744l-0.003,0.003c-0.477,0.475-1.248,0.477-1.723,0.003c-1.396-1.391-3.322-2.252-5.45-2.252
				c-4.432,0-7.993,3.737-7.702,8.234c0.244,3.797,3.309,6.898,7.103,7.183c2.019,0.153,3.887-0.47,5.338-1.601
				c-0.026-0.135-0.042-0.272-0.042-0.415c0-1.118,0.908-2.027,2.029-2.027C178.461,61.798,179.369,62.706,179.369,63.825z"/>
			<path d="M53.284,49.03c0,0.672-0.33,1.272-0.836,1.64v16.31c0,0.662-0.537,1.199-1.199,1.199h-0.003
				c-0.662,0-1.199-0.537-1.199-1.199v-7.754h-9.407v7.754c0,0.662-0.537,1.199-1.199,1.199h-0.003
				c-0.662,0-1.199-0.537-1.199-1.199V49.007c0-0.662,0.537-1.199,1.199-1.199h0.003c0.662,0,1.199,0.537,1.199,1.199v7.819h9.407
				v-6.168c-0.498-0.371-0.817-0.963-0.817-1.627c0-1.121,0.906-2.027,2.027-2.027C52.375,47.004,53.284,47.909,53.284,49.03z"/>
			<path d="M12.747,62.574c-0.236,3.047-2.735,5.496-5.782,5.681c-2.063,0.122-3.924-0.766-5.133-2.214
				C0.804,65.942,0,65.078,0,64.024c0-1.118,0.908-2.027,2.029-2.027c1.118,0,2.027,0.908,2.027,2.027
				c0,0.317-0.073,0.615-0.202,0.882c0.708,0.682,1.663,1.108,2.727,1.108c2.175,0,3.937-1.762,3.937-3.934
				c0-2.175-1.762-3.937-3.937-3.937c0,0-0.169-0.01-0.244-0.016c-1.163-0.086-2.216-0.561-3.034-1.292
				c-1.144-1.022-1.827-2.556-1.697-4.238c0.2-2.553,2.32-4.601,4.876-4.72c2.024-0.093,3.804,0.986,4.72,2.616
				c0.394,0.698,0.034,1.578-0.74,1.791c0,0-0.929,0.285-1.453-0.579c-0.527-0.877-1.508-1.451-2.626-1.357
				c-1.357,0.112-2.457,1.238-2.538,2.598c-0.091,1.544,1.074,2.831,2.569,2.94c0.067,0.005,0.441,0.013,0.555,0.021
				C10.365,56.117,13.017,59.068,12.747,62.574z"/>
			<path d="M131.945,62.574c-0.236,3.047-2.735,5.496-5.782,5.681c-2.063,0.122-3.924-0.766-5.133-2.214
				c-1.028-0.099-1.832-0.963-1.832-2.016c0-1.118,0.908-2.027,2.029-2.027c1.118,0,2.027,0.908,2.027,2.027
				c0,0.317-0.073,0.615-0.202,0.882c0.708,0.682,1.663,1.108,2.727,1.108c2.175,0,3.937-1.762,3.937-3.934
				c0-2.175-1.762-3.937-3.937-3.937c0,0-0.169-0.01-0.244-0.016c-1.163-0.086-2.216-0.561-3.034-1.292
				c-1.144-1.022-1.827-2.556-1.697-4.238c0.2-2.553,2.32-4.601,4.876-4.72c2.024-0.093,3.804,0.986,4.72,2.616
				c0.394,0.698,0.034,1.578-0.74,1.791c0,0-0.929,0.285-1.453-0.579c-0.527-0.877-1.508-1.451-2.626-1.357
				c-1.357,0.112-2.457,1.238-2.538,2.598c-0.091,1.544,1.074,2.831,2.569,2.94c0.067,0.005,0.441,0.013,0.555,0.021
				C129.562,56.117,132.215,59.068,131.945,62.574z"/>
			<path d="M77.303,57.615c-0.262-5.164-4.458-9.36-9.622-9.622c-6.031-0.304-10.985,4.648-10.679,10.681
				c0.26,5.164,4.458,9.36,9.622,9.622c2.338,0.117,4.513-0.555,6.283-1.772c0.119,0.023,0.244,0.034,0.368,0.034
				c1.121,0,2.029-0.906,2.029-2.027c0-0.099-0.008-0.195-0.021-0.288C76.657,62.413,77.428,60.106,77.303,57.615z M67.779,65.838
				c-4.757,0.376-8.696-3.563-8.322-8.32c0.296-3.742,3.327-6.776,7.069-7.069c4.757-0.376,8.696,3.563,8.32,8.32
				c-0.106,1.381-0.589,2.662-1.339,3.747c-0.075-0.008-0.153-0.013-0.231-0.013c-1.118,0-2.027,0.908-2.027,2.027
				c0,0.049,0.003,0.099,0.005,0.145C70.229,65.325,69.046,65.737,67.779,65.838z"/>
			<path d="M201.454,57.615c-0.262-5.164-4.458-9.36-9.622-9.622c-6.031-0.304-10.985,4.648-10.679,10.681
				c0.259,5.164,4.458,9.36,9.622,9.622c2.338,0.117,4.513-0.555,6.283-1.772c0.119,0.023,0.244,0.034,0.368,0.034
				c1.121,0,2.029-0.906,2.029-2.027c0-0.099-0.008-0.195-0.021-0.288C200.808,62.413,201.578,60.106,201.454,57.615z
				 M191.93,65.838c-4.757,0.376-8.696-3.563-8.322-8.32c0.296-3.742,3.327-6.776,7.069-7.069c4.757-0.376,8.696,3.563,8.32,8.32
				c-0.106,1.381-0.589,2.662-1.339,3.747c-0.075-0.008-0.153-0.013-0.231-0.013c-1.118,0-2.027,0.908-2.027,2.027
				c0,0.049,0.003,0.099,0.005,0.145C194.38,65.325,193.196,65.737,191.93,65.838z"/>
			<path d="M117.643,66.752l-8.247-16.759c0.223-0.327,0.353-0.719,0.353-1.142c0-1.118-0.908-2.027-2.027-2.027
				c-1.121,0-2.029,0.908-2.029,2.027c0,0.296,0.065,0.579,0.179,0.833L97.42,66.752c-0.293,0.594-0.049,1.316,0.545,1.606
				l0.003,0.003c0.594,0.293,1.311,0.049,1.604-0.545l2.766-5.605h10.39l2.764,5.605c0.293,0.592,1.015,0.836,1.606,0.545
				c0.423-0.21,0.67-0.636,0.67-1.08C117.767,67.105,117.726,66.923,117.643,66.752z M103.521,59.81l4.012-8.128l4.009,8.128
				H103.521z"/>
		</g>
		<path class="st3" d="M62.036,35.909H39.883c-3.766,0-6.818-3.053-6.818-6.818V6.818C33.064,3.053,36.117,0,39.883,0h22.153
			c3.766,0,6.818,3.053,6.818,6.818V29.09C68.854,32.856,65.802,35.909,62.036,35.909z"/>
		<path class="st2" d="M62.129,16.851c0,3.631-2.943,6.574-6.574,6.574c-0.132,0-0.263-0.004-0.392-0.012
			c-0.658,0.609-1.442,1.083-2.309,1.381l0.771,6.789h-5.688l0.911-6.714c-0.914-0.275-1.743-0.744-2.44-1.36
			c-0.213,0.023-0.429,0.034-0.648,0.034c-3.316,0-6.005-2.688-6.005-6.004c0-2.438,1.453-4.537,3.541-5.478
			c0.676-3.446,3.713-6.045,7.356-6.045c3.103,0,5.766,1.884,6.904,4.571C60.209,11.434,62.129,13.919,62.129,16.851z"/>
		<path class="st4" d="M105.722,35.909H83.569c-3.766,0-6.818-3.053-6.818-6.818V6.818C76.75,3.053,79.803,0,83.569,0h22.153
			c3.766,0,6.818,3.053,6.818,6.818V29.09C112.54,32.856,109.488,35.909,105.722,35.909z"/>
		<g>
			<circle class="st2" cx="94.879" cy="8.533" r="3.476"/>
			<path class="st2" d="M92.746,13.59c0,0.899-0.361,1.716-0.948,2.311v-3.418h0.757C92.678,12.829,92.746,13.202,92.746,13.59z"/>
			<path class="st2" d="M97.526,12.483v3.355c-0.552-0.59-0.889-1.381-0.889-2.248c0-0.388,0.068-0.761,0.191-1.107H97.526z"/>
			<path class="st2" d="M97.53,16.333v16.296h-2.567v-9.776c0-0.164-0.133-0.297-0.297-0.297l0,0c-0.164,0-0.297,0.133-0.297,0.297
				v9.776h-2.567V16.385c0.796-0.671,1.304-1.675,1.304-2.796c0-0.385-0.06-0.757-0.172-1.107h3.523
				c-0.111,0.35-0.172,0.722-0.172,1.107C96.286,14.681,96.768,15.663,97.53,16.333z"/>
			<g>
				<path class="st2" d="M91.403,22.77c0,0.515-0.417,0.932-0.932,0.932c-0.515,0-0.932-0.417-0.932-0.932H91.403z"/>
				<path class="st2" d="M91.403,22.556h-1.865v-9.687c0-0.213,0.173-0.386,0.386-0.386h1.478V22.556z"/>
			</g>
			<g>
				<path class="st2" d="M97.888,22.77c0,0.515,0.417,0.932,0.932,0.932c0.515,0,0.932-0.417,0.932-0.932H97.888z"/>
				<path class="st2" d="M97.888,22.556h1.865v-9.687c0-0.213-0.173-0.386-0.386-0.386h-1.478V22.556z"/>
			</g>
		</g>
	</g>
</g>
</svg>