<!-- Generator: Adobe Illustrator 19.1.0, SVG Export Plug-In  -->
<svg version="1.1"
	 xmlns="http://www.w3.org/2000/svg" xmlns:xlink="http://www.w3.org/1999/xlink" xmlns:a="http://ns.adobe.com/AdobeSVGViewerExtensions/3.0/"
	 x="0px" y="0px" width="176px" height="176px" viewBox="0 0 176 176" style="enable-background:new 0 0 176 176;"
	 xml:space="preserve">
<style type="text/css">
	.st0{fill:#EDE813;}
	.st1{fill:#FFFFFF;}
</style>
<defs>
</defs>
<path class="st0" d="M147.568,0H28.432C12.729,0,0,12.729,0,28.432v119.136C0,163.271,12.729,176,28.432,176h119.136
	C163.271,176,176,163.271,176,147.568V28.432C176,12.729,163.271,0,147.568,0z"/>
<g id="XMLID_1_">
	<g id="XMLID_3_">
		<path class="st1" d="M151.66,69.85l-0.11,0.1h-5.2l-3.17-2.36l-3.34,0.32v2.04h-1.05l-1.14-0.81l-5.78-1.47v-3.74l-7.32,0.57
			l-2.27,1.22h-2.91l-1.43-0.14l-3.52,1.95v3.69l-7.22,5.21l0.6,2.22h1.46l-0.38,2.11l-1.03,0.38l-0.05,5.54l6.23,7.1h2.71
			l0.17-0.44h4.88l1.41-1.3h2.76l1.52,1.52l4.12,0.43l-0.54,5.48l4.58,8.08l-2.42,4.61l0.17,2.17l1.9,1.89v5.21l2.49,3.36v4.34h1.8
			c-11.91,14.59-30.02,23.92-50.31,23.99c-0.07,0.01-0.15,0.01-0.23,0.01c-7.31,0-14.34-1.2-20.91-3.42
			c-0.4-0.13-0.81-0.28-1.21-0.43c-0.5-0.18-1-0.37-1.49-0.56C41.24,139.16,24.08,115.55,24.08,88c0-9.06,1.86-17.69,5.21-25.54
			v3.72l2.71,1.3v5.16l2.6,4.44l2.12,0.33l0.27-1.53l-2.49-3.85l-0.49-3.74h1.46l0.62,3.85l3.61,5.27l-0.94,1.69l2.29,3.51l5.7,1.41
			V83.1l2.27,0.32l-0.21,1.63l1.79,0.32l2.76,0.76l3.91,4.45l4.98,0.37l0.49,4.07l-3.41,2.39l-0.16,3.63l-0.49,2.23l4.93,6.18
			l0.38,2.11c0,0,1.79,0.49,2.01,0.49c0.21,0,4.01,2.87,4.01,2.87v11.17l1.35,0.38l-0.92,5.15l2.28,3.04l-0.42,5.1l3.01,5.29
			l3.86,3.38l3.88,0.07l0.38-1.25l-2.85-2.4l0.16-1.19l0.52-1.47l0.11-1.49l-1.93-0.05l-0.98-1.22l1.61-1.55l0.21-1.16l-1.78-0.51
			l0.1-1.09l2.55-0.38l3.88-1.87l1.3-2.38l3.14-4.03l0.93-1.18l-0.93-4.06v-0.02l1.25-2.16l3.74,0.11l2.52-1.99l0.81-7.85l2.8-3.55
			l0.49-2.28l-2.55-0.81l-1.68-2.77l-5.75-0.05l-1.63-0.62l-2.93-1.12l-0.21-3.25l-1.52-2.66l-4.12-0.05l-2.39-3.74l-2.11-1.03
			l-0.11,1.14l-3.85,0.23l-1.4-1.97l-4.02-0.81l-3.31,3.82l-5.2-0.88l-0.38-5.87l-3.8-0.65l1.52-2.87l-0.43-1.66l-4.99,3.34
			l-3.14-0.38l-1.13-2.46l0.69-2.52l1.73-3.2l3.99-2.01l7.69-0.01l-0.02,2.35l2.77,1.29l-0.22-4.02l1.99-2l4.03-2.64l0.27-1.86
			l4.01-4.18l4.27-2.36l-0.38-0.31l2.89-2.72l1.06,0.28l0.48,0.61l1.1-1.22l0.27-0.11l-1.2-0.17l-1.22-0.41v-1.18l0.65-0.53h1.42
			l0.65,0.29l0.57,1.14l0.69-0.11v-0.1l0.2,0.07l2-0.31l0.28-0.98l1.14,0.29v1.06l-1.05,0.73l0.15,1.16l2.62,0.81l1.01,0.31
			c0,0,0,0.02,0,0.04l0.83-0.07l0.06-1.57l-1.9-0.87l-0.97-0.44l-0.16-0.75l1.13-0.39l1.25-0.43l0.1-2.28l-1.35-0.82l-1.13-0.69
			l-0.17-3.85l-3.41,1.68h-1.25l0.33-2.93l-4.66-1.1l-1.92,1.46v4.43l-3.46,1.09l-1.38,2.89l-1.5,0.24v-3.69l-3.25-0.45l-1.63-1.06
			l-0.65-2.4l5.81-3.4l2.85-0.87l0.28,1.91l1.59-0.08l0.12-0.96l1.66-0.24l0.03-0.33l-0.71-0.3l-0.17-1.01l2.04-0.17l1.23-1.29
			l0.07-0.09l0.01,0.01l0.38-0.39l4.29-0.54l1.89,1.61l-4.97,2.64l6.32,1.49l0.82-2.11h2.77l0.98-1.84l-1.96-0.49v-2.33l-1.25-0.55
			l-4.87-2.16l-4.24,0.48l-2.38,1.25l0.16,3.04l-2.49-0.38l-0.39-1.68l2.39-2.17l-4.33-0.22l-1.25,0.38l-0.54,1.47l1.62,0.27
			l-0.32,1.62l-2.77,0.17l-0.43,1.08l-4.01,0.11c0,0-0.11-2.28-0.27-2.28l3.14-0.05l2.39-2.34l-1.31-0.64l-1.73,1.68l-2.88-0.16
			l-1.73-2.39h-3.69l-3.85,2.87h3.53l0.32,1.03l-0.91,0.87l3.9,0.11l0.59,1.41l-4.39-0.17l-0.22-1.08l-2.76-0.6l-1.46-0.81L51,35.25
			c5.04-3.68,10.64-6.66,16.63-8.78c0.32-0.11,0.65-0.23,0.98-0.33c0.35-0.13,0.7-0.24,1.04-0.34c6.13-1.9,12.64-2.93,19.39-2.93
			c0.08,0,0.16,0.01,0.23,0.01c16.51,0.06,31.57,6.24,43.02,16.4c7.7,6.82,13.76,15.42,17.54,25.17
			C150.52,66.21,151.13,68.01,151.66,69.85z"/>
		<polygon id="XMLID_6_" class="st1" points="88.541,120.635 88.544,120.647 88.544,120.626 		"/>
		<path id="XMLID_4_" class="st1" d="M150.16,64.44l-0.33,0.01l-3.07,0.05l-1.71-1.87l-0.33-3.01l-1.74,0.95l-0.94,3.68l-2.52-2.68
			l-0.11-2.54l-2.43-2.1l-0.9-0.89h-2.83l0.9,2.52l3.4,1.89l0.59,0.63l-0.74,0.37l0.03,1.99l-1.65,0.69l-1.42-0.31l-0.88-1.25
			l2.3,0.12l0.62-0.83l-5.1-3.44l-0.39-1.46l-2.06,1.87l-2.11-0.43l-3.19,4.15l-0.62,1.62l-2.05,0.19l-3.02,0.02l-1.8-0.85
			l-0.54-3.59l0.65-1.71l3.08-0.67l3.35,0.67l0.41-1.85l-1.43-0.34l0.49-2.89l3.37-0.52l2.37-3.34l2.44-0.41l2.19,0.33h0.81
			l-0.44-3.13l-2.68,1.08l-0.93-2.34l-1.56-0.22l-0.29-1.6l1.27-1.38l3.01-1.18l0.66-1.16l0.12-0.22
			c-11.47-10.11-26.49-16.27-42.94-16.3c-0.04-0.01-0.09-0.01-0.14-0.01c-6.86,0-13.47,1.06-19.68,3.05
			c-0.34,0.1-0.69,0.21-1.04,0.34c-0.33,0.1-0.66,0.22-0.98,0.33c-5.99,2.12-11.59,5.1-16.63,8.78l3.29-0.03l1.46,0.81l2.76,0.6
			l0.22,1.08l4.39,0.17l-0.59-1.41l-3.9-0.11l0.91-0.87l-0.32-1.03h-3.53l3.85-2.87h3.69l1.73,2.39l2.88,0.16l1.73-1.68l1.31,0.64
			l-2.39,2.34l-3.14,0.05c0.16,0,0.27,2.28,0.27,2.28l4.01-0.11l0.43-1.08l2.77-0.17l0.32-1.62l-1.62-0.27l0.54-1.47l1.25-0.38
			l4.33,0.22l-2.39,2.17l0.39,1.68l2.49,0.38l-0.16-3.04l2.38-1.25l4.24-0.48l4.87,2.16l1.25,0.55v2.33l1.96,0.49l-0.98,1.84h-2.77
			l-0.82,2.11l-6.32-1.49l4.97-2.64l-1.89-1.61l-4.29,0.54l-0.38,0.39l-0.01-0.01l-0.07,0.09l-1.23,1.29l-2.04,0.17l0.17,1.01
			l0.71,0.3L77.7,40.2l-1.66,0.24l-0.12,0.96l-1.59,0.08l-0.28-1.91l-2.85,0.87l-5.81,3.4l0.65,2.4l1.63,1.06l3.25,0.45v3.69
			l1.5-0.24l1.38-2.89l3.46-1.09v-4.43l1.92-1.46l4.66,1.1l-0.33,2.93h1.25l3.41-1.68l0.17,3.85l1.13,0.69l1.35,0.82l-0.1,2.28
			l-1.25,0.43l-1.13,0.39l0.16,0.75l0.97,0.44l1.9,0.87l-0.06,1.57l-0.83,0.07c0-0.02,0-0.04,0-0.04l-1.01-0.31l-2.62-0.81
			l-0.15-1.16l1.05-0.73v-1.06l-1.14-0.29l-0.28,0.98l-2,0.31l-0.2-0.07v0.1l-0.69,0.11l-0.57-1.14l-0.65-0.29H80.8l-0.65,0.53v1.18
			l1.22,0.41l1.2,0.17l-0.27,0.11l-1.1,1.22l-0.48-0.61l-1.06-0.28l-2.89,2.72l0.38,0.31l-4.27,2.36l-4.01,4.18L68.6,65.6
			l-4.03,2.64l-1.99,2l0.22,4.02l-2.77-1.29l0.02-2.35l-7.69,0.01l-3.99,2.01l-1.73,3.2l-0.69,2.52l1.13,2.46l3.14,0.38l4.99-3.34
			l0.43,1.66l-1.52,2.87l3.8,0.65l0.38,5.87l5.2,0.88l3.31-3.82l4.02,0.81l1.4,1.97l3.85-0.23l0.11-1.14l2.11,1.03l2.39,3.74
			l4.12,0.05l1.52,2.66l0.21,3.25l2.93,1.12l1.63,0.62l5.75,0.05l1.68,2.77l2.55,0.81l-0.49,2.28l-2.8,3.55l-0.81,7.85l-2.52,1.99
			l-3.74-0.11l-1.25,2.16v0.02l0.93,4.06l-0.93,1.18l-3.14,4.03l-1.3,2.38l-3.88,1.87l-2.55,0.38l-0.1,1.09l1.78,0.51l-0.21,1.16
			l-1.61,1.55l0.98,1.22l1.93,0.05l-0.11,1.49l-0.52,1.47l-0.16,1.19l2.85,2.4l-0.38,1.25l-3.88-0.07l-3.86-3.38l-3.01-5.29
			l0.42-5.1l-2.28-3.04l0.92-5.15l-1.35-0.38v-11.17c0,0-3.8-2.87-4.01-2.87c-0.22,0-2.01-0.49-2.01-0.49l-0.38-2.11l-4.93-6.18
			l0.49-2.23l0.16-3.63l3.41-2.39l-0.49-4.07l-4.98-0.37l-3.91-4.45l-2.76-0.76l-1.79-0.32l0.21-1.63l-2.27-0.32v0.92l-5.7-1.41
			l-2.29-3.51l0.94-1.69l-3.61-5.27l-0.62-3.85h-1.46l0.49,3.74l2.49,3.85l-0.27,1.53l-2.12-0.33L32,72.64v-5.16l-2.71-1.3v-3.72
			c-3.35,7.85-5.21,16.48-5.21,25.54c0,27.55,17.16,51.16,41.35,60.72c0.49,0.19,0.99,0.38,1.49,0.56c0.4,0.15,0.81,0.3,1.21,0.43
			c6.65,2.3,13.78,3.54,21.2,3.54c0.05,0,0.1-0.01,0.14-0.01c20.34-0.04,38.52-9.44,50.46-24.11h-2.15v-4.34l-2.49-3.36v-5.21
			l-1.9-1.89l-0.17-2.17l2.42-4.61l-4.58-8.08l0.54-5.48l-4.12-0.43l-1.52-1.52h-2.76l-1.41,1.3h-4.88l-0.17,0.44h-2.71l-6.23-7.1
			l0.05-5.54l1.03-0.38l0.38-2.11h-1.46l-0.6-2.22l7.22-5.21v-3.69l3.52-1.95l1.43,0.14h2.91l2.27-1.22l7.32-0.57v3.74l5.78,1.47
			l1.14,0.81h1.05v-2.04l3.34-0.32l3.17,2.36h5.2l0.11-0.1l0.26-0.24C151.4,67.86,150.81,66.13,150.16,64.44z M80.37,57.96
			l-1.35,0.12l0.07-0.95l0.61-0.75l0.81,0.64L80.37,57.96z M85.14,56.3l-0.93,0.08l-0.19,0.9l-0.71,0.44l-1.14,0.1
			c-0.04-0.27-0.07-0.48-0.07-0.48h-0.44v-0.96h1.86l0.39-1l0.74-0.01l0.85,0.17L85.14,56.3z M120.02,49.4l-2.68,1.89h-1.52v-1.35
			l1.31-2.08l1.75-0.41l1.26,0.54L120.02,49.4z M124.61,51.92l-2.53,0.25h-1.89l0.21-2.25l1.58-0.33l-0.14-1.06l-1.46-0.92
			l-1.03-0.7v-1.04l0.6-0.92l2.13-0.43l0.55,2.6l1.14,1.84l0.75,0.87l1.39,0.54L124.61,51.92z"/>
	</g>
</g>
</svg>