<!-- Generator: Adobe Illustrator 19.1.0, SVG Export Plug-In  -->
<svg version="1.1"
	 xmlns="http://www.w3.org/2000/svg" xmlns:xlink="http://www.w3.org/1999/xlink" xmlns:a="http://ns.adobe.com/AdobeSVGViewerExtensions/3.0/"
	 x="0px" y="0px" width="176px" height="176px" viewBox="0 0 176 176" style="enable-background:new 0 0 176 176;"
	 xml:space="preserve">
<style type="text/css">
	.st0{fill:#77BC1F;}
	.st1{fill:#FFFFFF;}
</style>
<defs>
</defs>
<path class="st0" d="M147.568,0H28.432C12.729,0,0,12.729,0,28.432v119.136C0,163.271,12.729,176,28.432,176h119.136
	C163.271,176,176,163.271,176,147.568V28.432C176,12.729,163.271,0,147.568,0z"/>
<g>
	<g>
		<path class="st0" d="M122.852,27.091H88.557h-0.005H54.263c0,0-5.237,9.208-12.418,10.04
			c-25.472,88.163,46.672,109.939,46.712,109.952h0.005c0.045-0.013,72.19-21.79,46.718-109.952
			C128.079,36.294,122.852,27.091,122.852,27.091z"/>
		<path class="st1" d="M119.226,32.648h-31.19h-0.004H56.846c0,0-4.763,8.319-11.294,9.071
			C22.387,121.374,88,141.048,88.036,141.061h0.005c0.041-0.012,65.654-19.687,42.489-99.342
			C123.98,40.963,119.226,32.648,119.226,32.648z"/>
		<path class="st1" d="M141.475,35.012l-0.623-2.108l-2.455-0.281c-4.662-0.527-9.233-6.643-10.46-8.75l-1.035-1.753H49.157
			l-1.022,1.757c-1.227,2.103-5.761,8.215-10.463,8.745l-2.461,0.281l-0.621,2.108C6.535,129.846,86.177,153.393,86.997,153.606
			l1.058,0.273l1.063-0.281C89.923,153.377,169.322,129.126,141.475,35.012z M88.036,147.083
			c-9.6-3.265-69.902-27.314-46.881-108.582c6.032-1.797,10.397-7.089,12.384-9.931h68.993c1.988,2.843,6.349,8.139,12.385,9.931
			C157.937,119.774,97.627,143.818,88.036,147.083z"/>
	</g>
	<path class="st0" d="M105.519,69.924h-2.395c0-12-6.381-16.771-15.173-16.771c-8.792,0-15.173,4.771-15.173,16.771h-2.396
		c-3.528,0-4.189,1.324-4.189,4.852v22.361c0,3.528,0.661,6.787,4.189,6.787h35.138c3.528,0,5.673-3.259,5.673-6.787V74.777
		C111.192,71.248,109.048,69.924,105.519,69.924z M91.943,96.924h-7.986l1.534-11.031c-1.57-0.881-2.631-2.704-2.631-4.632
		c0-2.839,2.3-5.215,5.141-5.215c2.839,0,5.141,2.266,5.141,5.105c0,1.965-1.103,3.946-2.725,4.811L91.943,96.924z M77.569,69.924
		c0-10,5.214-11.979,10.381-11.979c5.168,0,10.382,1.979,10.382,11.979H77.569z"/>
</g>
</svg>