<!-- Generator: Adobe Illustrator 19.1.0, SVG Export Plug-In  -->
<svg version="1.1"
	 xmlns="http://www.w3.org/2000/svg" xmlns:xlink="http://www.w3.org/1999/xlink" xmlns:a="http://ns.adobe.com/AdobeSVGViewerExtensions/3.0/"
	 x="0px" y="0px" width="176px" height="176px" viewBox="0 0 176 176" style="enable-background:new 0 0 176 176;"
	 xml:space="preserve">
<style type="text/css">
	.st0{fill:#77BC1F;}
	.st1{fill:#FFFFFF;}
</style>
<defs>
</defs>
<g>
	<path class="st0" d="M147.568,0H28.432C12.729,0,0,12.729,0,28.432v119.136C0,163.271,12.729,176,28.432,176h119.136
		C163.271,176,176,163.271,176,147.568V28.432C176,12.729,163.271,0,147.568,0z"/>
	<g>
		<path class="st1" d="M52.044,56.689l0.345-0.128l0.023-3.114l-0.023,3.114l2.664-0.999c-0.068-0.031-0.141-0.071-0.211-0.102
			c4.14-5.101,11.787-7.554,25.056-4.713l19.306,4.22c0,0-8.025-22.18-53.39-12.727c0,0,18.199-16.556,33.79-16.74
			c0,0-49.491-18.438-50.314,25.846c0,0-33.959,38.992,0.628,53.458c0,0-7.813-31.648,9.292-40.206c0,0-0.469,40.102,20.052,39.86
			c0.197,0.461-12.497-27.092-7.393-43.328c0.162,0.153,0.315,0.312,0.476,0.467l0.045-5.035L52.044,56.689z"/>
		<path class="st1" d="M55.053,55.562l-2.664,0.999l-0.045,5.035c40.447,38.502,26.541,92.711,26.541,92.711l9.194-0.108
			l8.788-0.103l-0.485-41.288C85.052,76.531,67.614,61.624,55.053,55.562z"/>
		<path class="st1" d="M130.976,72.727l-3.634-1.228c0.088,0.097,0.178,0.186,0.26,0.287c-9.464,4.796-22.313,15.911-31.091,41.411
			c-0.039-0.132-0.085-0.255-0.129-0.389l0.485,41.288l8.117-0.098l4.677-0.054c0,0-12.654-44.901,20.522-77.538L130.976,72.727z"/>
		<path class="st1" d="M148.649,67.876c-1.54-36.58-42.082-20.372-42.082-20.372c12.883-0.151,28.248,13.174,28.248,13.174
			C97.124,53.756,90.933,72.25,90.933,72.25l15.876-3.879c10.645-2.54,16.956-0.816,20.534,3.128l3.634,1.228l0.702-3.222
			l-0.702,3.222l2.366,0.803l-2.366-0.803l-0.793,3.679c0,0,0.003-0.005,0.008-0.004c4.523,13.321-5.431,36.353-5.281,35.954
			c16.974-0.197,15.803-33.336,15.803-33.336c14.308,6.742,8.458,33.052,8.458,33.052C177.48,99.455,148.649,67.876,148.649,67.876z
			"/>
		<path class="st1" d="M60.407,63.062c0.063,5.02-3.96,9.148-8.987,9.207c-5.027,0.058-9.153-3.971-9.208-8.989
			c-0.062-5.027,3.969-9.152,8.99-9.213C56.229,54.008,60.349,58.039,60.407,63.062z"/>
		<path class="st1" d="M138.455,78.523c0.061,5.026-3.964,9.151-8.992,9.211c-5.023,0.06-9.148-3.971-9.208-8.995
			c-0.057-5.02,3.972-9.146,8.993-9.206C134.279,69.475,138.396,73.502,138.455,78.523z"/>
	</g>
</g>
</svg>